# xmcd
#
# Track frame offsets: 
#        150
#        13879
#        32386
#        49236
#        70054
#        84667
#        102365
#        121011
#        138964
#        159187
#        173597
#        191795
#        207804
#
# Disc length: 2961 seconds
#
# Revision: 1
# Processed by: cddbd v1.5.2PL0 Copyright (c) Steve Scherf et al.
# Submitted via: ExactAudioCopy v0.95b4
#
DISCID=a20b8f0d
DTITLE=Cholane - Caution!
DYEAR=2015
DGENRE=Metal
TTITLE0=Shake Your Bones
TTITLE1=Wicked Man
TTITLE2=Streets Of Fire
TTITLE3=Get Down
TTITLE4=Stop
TTITLE5=Deaf Dump And Blinded
TTITLE6=Grow Old
TTITLE7=Final Curtain
TTITLE8=Alive
TTITLE9=Eternity
TTITLE10=Highway
TTITLE11=Fading Away
TTITLE12=One Track Mind
EXTD=n\n
EXTT0=
EXTT1=
EXTT2=
EXTT3=
EXTT4=
EXTT5=
EXTT6=
EXTT7=
EXTT8=
EXTT9=
EXTT10=
EXTT11=
EXTT12=
PLAYORDER=
